<svg id="Layer_1" xmlns="http://www.w3.org/2000/svg" viewBox="0 0 391.6 162.3">
  <style>
    .st0{fill:#0d7171}
  </style>
  <linearGradient id="SVGID_1_" gradientUnits="userSpaceOnUse" x1="-705.7134" y1="-4400.0835" x2="-705.0063" y2="-4399.3765">
    <stop offset="0" stop-color="#dfdfe3"/>
    <stop offset=".1736" stop-color="#d9d9dd"/>
    <stop offset=".3517" stop-color="#cacacd"/>
    <stop offset=".5317" stop-color="#b4b5b8"/>
    <stop offset=".7132" stop-color="#999a9d"/>
    <stop offset=".894" stop-color="#797d7e"/>
    <stop offset="1" stop-color="#656c6d"/>
  </linearGradient>
  <path class="st0" d="M167.9 67.2c.1-.4.1-.9.2-1.3.4-1.8 1.2-3.4 2.4-4.8 4-4.9 9-8.3 15.1-10.2 2.2-.7 4.5-.5 6.7.1 3.6 1 7 2.6 10.2 4.4 1.3.7 2 1.8 1.8 3.4 0 .2-.1.4-.1.6-.6 1.3-1.1 2.6-1.8 3.9-.9 1.6-2.8 2-4.7 1-1.8-.9-3.6-1.7-5.5-2.5-.8-.3-1.7-.5-2.6-.7-1.3-.3-2.5.1-3.6.6-2 .9-3.7 2.2-5.1 3.9-1 1.2-1.5 2.6-1.5 4.2v22.6c0 1.6.4 3 1.5 4.2 1.7 2 3.9 3.5 6.4 4.4 1.4.4 2.7.2 4-.2 2.3-.7 4.4-1.8 6.5-2.9.7-.4 1.4-.6 2.2-.6 1.1 0 1.9.4 2.4 1.4.6 1.3 1.3 2.6 1.8 3.9.6 1.6.1 3-1.4 3.9-2.7 1.6-5.5 3-8.5 4.1-2 .7-4.1 1.3-6.2 1.1-2-.1-3.8-.8-5.6-1.6-4.1-1.9-7.8-4.4-10.8-7.8-1.5-1.7-2.8-3.5-3.3-5.7-.1-.5-.2-.9-.3-1.4-.2-9.3-.2-18.6-.2-28zM248.5 58.7c1.9-2.1 4-3.8 6.4-5.3 1.9-1.2 3.9-2.1 6.1-2.6 1.8-.4 3.5-.2 5.2.3 3.6 1.1 6.8 2.9 9.7 5.3 2.1 1.6 3.9 3.5 5.3 5.8 1 1.6 1.5 3.4 1.5 5.3v40.6c0 1.8-1 2.7-2.8 2.8h-5.7c-1.8 0-2.8-.9-2.8-2.8v-4.6-34.1c0-1.5-.5-2.8-1.5-4-1.6-1.8-3.5-3.2-5.8-4-1.3-.5-2.6-.2-3.8.4-1.9.9-3.6 2.2-4.9 3.9-.8 1.1-1.3 2.2-1.2 3.6V108.4c-.1 1.4-1.1 2.4-2.4 2.5-2.2 0-4.4.1-6.5 0-1.4 0-2.3-1-2.4-2.4v-1-38.1c0-1.3-.4-2.5-1.2-3.5-1.6-2-3.7-3.5-6.1-4.4-1.3-.5-2.6-.2-3.8.4-2 1-3.8 2.3-5.2 4.1-.7 1-1.1 2.1-1.1 3.4v39.3c-.1 1.4-1 2.3-2.4 2.3h-6.5c-1.3 0-2.2-.9-2.4-2.2-.1-.4 0-.7 0-1.1V68.1c0-2.7.8-4.9 2.4-7 2.7-3.6 6.2-6.2 10.2-8.2 1.6-.8 3.2-1.4 4.9-1.8 2.2-.5 4.3-.2 6.3.6 3.7 1.4 6.9 3.7 9.7 6.5.2-.1.5.2.8.5zM354.3 111.8c-1-.2-2.1-.4-3.1-.7-3.2-1-6.1-2.6-8.8-4.5-2.7-1.9-5.2-4.1-7.3-6.8-1.1-1.4-2-2.8-2.5-4.5-.3-.9-.4-1.9-.4-2.9V69.8c0-2 .6-3.9 1.7-5.6 1.8-2.9 4.2-5.3 6.8-7.3 2.7-2.1 5.6-3.9 8.8-5.1 2.3-.9 4.7-1.5 7.2-1 1.6.3 3.1.7 4.6 1.2 4 1.5 7.7 3.5 11.3 5.7 1.5.9 1.9 2.4 1.1 3.9l-1.8 3.6c-.6 1.1-1.9 1.7-3.1 1.4-.5-.1-1-.4-1.5-.6-3-1.5-6.1-3.1-9.3-4.2-2.3-.8-4.5-.7-6.7.5-2.6 1.5-4.9 3.2-6.6 5.7-.7 1-1 2.1-1 3.3v18.9c0 2 .6 3.7 1.9 5.2 1.8 2.1 3.9 3.7 6.4 4.9 2 1 4 1 5.9-.1 2.8-1.5 5.3-3.4 7.1-6.1.7-1 1-2.1 1-3.3v-5h-6.2c-1.7 0-2.8-1.1-2.8-2.8v-4.5c0-1.7 1.1-2.8 2.7-2.8h13.8c1.9 0 3.9 2 3.9 3.9v12.9c0 1.9-.7 3.7-1.6 5.3-1.4 2.4-3.3 4.4-5.4 6.2-3 2.6-6.3 4.8-10 6.3-1.5.6-2.9 1-4.5 1.2-.1 0-.2.1-.4.1-.4.2-.8.2-1.2.2zM301.9 60.4V108c0 1.6 1.3 2.8 2.8 2.8h5.7c1.6 0 2.8-1.3 2.8-2.8V60.4h10.7c1.9 0 2.8-.9 2.9-2.8v-4.3c0-.4-.1-.8-.2-1.1-.4-1.2-1.4-1.6-2.5-1.6h-31.6c-2 0-2.9.9-2.9 2.9v3.9c0 .4 0 .8.1 1.2.3 1.2 1.2 1.8 2.7 1.8h9.5zM81.8 50.1l5.2 5.2c.4.4.4.9 0 1.3L65.5 78.2l-1.6 1.6c-.7.7-.7 1.9 0 2.6l16 16c.7.7 1.9.7 2.6 0l23.2-23.2c.4-.4.9-.4 1.3 0l5.2 5.2c.4.4.4.9 0 1.3l-30.4 30.4c-.4.4-.9.4-1.3 0L50.1 81.8c-.4-.4-.4-.9 0-1.3l30.4-30.4c.4-.4 1-.4 1.3 0zm0-25l55.5 55.5c.4.4.4.9 0 1.3l-55.5 55.5c-.4.4-.9.4-1.3 0l-17.7-17.7c-.4-.4-.4-.9 0-1.3l5.3-5.3c.4-.4.9-.4 1.3 0l10.5 10.4c.7.7 1.9.7 2.6 0l40.9-40.9c.7-.7.7-1.9 0-2.6l-15.7-15.7c-.7-.7-1.9-.7-2.6 0L81.8 87.4c-.4.4-.9.4-1.3 0l-5.6-5.6c-.4-.4-.4-.9 0-1.3l23.2-23.2c.7-.7.7-1.9 0-2.6L82.5 39c-.7-.7-1.9-.7-2.6 0L39 79.9c-.7.7-.7 1.9 0 2.6L49.4 93c.4.4.4.9 0 1.3l-5.3 5.3c-.4.4-.9.4-1.3 0L25.1 81.8c-.4-.4-.4-.9 0-1.3L80.6 25c.3-.3.9-.3 1.2.1zm-3.2-9.8L15.3 78.6c-1.4 1.4-1.4 3.8 0 5.2l25.6 25.6c1.4 1.4 3.8 1.4 5.2 0l9.2-9.3c.4-.4.9-.4 1.3 0l5.6 5.6c.4.4.4.9 0 1.3l-9.2 9.3c-1.4 1.4-1.4 3.8 0 5.2l25.6 25.6c1.4 1.4 3.8 1.4 5.2 0l63.3-63.3c1.4-1.4 1.4-3.8 0-5.2L83.8 15.3c-1.5-1.5-3.8-1.5-5.2 0z"/>
</svg>
