<svg id="Layer_1" xmlns="http://www.w3.org/2000/svg" width="247" height="114" viewBox="0 0 247 114"><style>.st0{display:none}.st1{display:inline}.st2{fill:#fff}.st3{fill:#004987}</style><path class="st2" d="M6.8 99.9h3.7c.7 0 1.3 0 1.7.1.4.1.7.2 1 .3.3.2.5.4.7.7.2.3.3.6.3.9 0 .4-.1.7-.4 1-.2.3-.6.6-1 .7.6.1 1 .4 1.3.7.3.3.5.8.5 1.2 0 .4-.1.7-.3 1.1-.2.3-.5.6-.8.8-.3.2-.8.3-1.3.4-.3 0-1.1 0-2.3.1H6.8v-8zm1.9 1.4v1.9H11.3c.3 0 .6-.1.8-.3.2-.2.3-.4.3-.6 0-.2-.1-.5-.2-.6-.2-.2-.4-.3-.7-.3H8.7zm0 3.2v2.2h3c.3 0 .5-.2.7-.3.2-.2.3-.4.3-.7 0-.2-.1-.4-.2-.6-.1-.2-.3-.3-.6-.4-.3-.1-.8-.1-1.7-.1H8.7zM32.5 108h-2.1l-.8-1.8h-3.7l-.8 1.8h-2l3.6-8.1h2l3.8 8.1zm-3.5-3.2l-1.3-3-1.3 3H29zM40.1 105.4l1.8-.2c.1.5.3.9.7 1.2.3.2.8.4 1.4.4.6 0 1.1-.1 1.4-.3.3-.2.5-.5.5-.8 0-.2-.1-.4-.2-.5-.1-.1-.4-.3-.7-.3-.2-.1-.7-.2-1.5-.4-1-.2-1.7-.5-2.1-.8-.6-.4-.9-1-.9-1.6 0-.4.1-.8.4-1.2.3-.4.7-.6 1.2-.8.5-.2 1.1-.3 1.8-.3 1.2 0 2.1.2 2.7.7.6.4.9 1 .9 1.8l-1.9.1c-.1-.4-.3-.7-.5-.9-.3-.2-.7-.3-1.2-.3s-1 .1-1.3.3c-.2.1-.3.3-.3.5s.1.4.3.5c.2.2.8.4 1.7.5.9.2 1.6.4 2 .6.4.2.8.5 1 .8.2.3.4.8.4 1.3s-.1.9-.4 1.3c-.3.4-.7.7-1.3.9-.5.2-1.2.3-2 .3-1.2 0-2.1-.2-2.7-.7-.7-.5-1.1-1.2-1.2-2.1zM57.4 108v-8.1h1.9v3.6l3.8-3.6h2.5l-3.5 3.1 3.7 4.9h-2.4l-2.6-3.8-1.5 1.3v2.4h-1.9zM74.7 108v-8.1h6.9v1.4h-5v1.8h4.7v1.4h-4.7v2.2h5.2v1.4h-7.1zM92.3 108v-6.7h-2.8v-1.4h7.4v1.4h-2.8v6.7h-1.8zM106.3 99.9h3.7c.7 0 1.3 0 1.7.1.4.1.7.2 1 .3.3.2.5.4.7.7.2.3.3.6.3.9 0 .4-.1.7-.4 1-.2.3-.6.6-1 .7.6.1 1 .4 1.3.7.3.3.5.8.5 1.2 0 .4-.1.7-.3 1.1-.2.3-.5.6-.8.8-.3.2-.8.3-1.3.4-.3 0-1.1 0-2.3.1h-3.2v-8zm1.9 1.4v1.9H110.8c.3 0 .6-.1.8-.3.2-.2.3-.4.3-.6 0-.2-.1-.5-.2-.6-.2-.2-.4-.3-.7-.3h-2.8zm0 3.2v2.2h3c.3 0 .5-.2.7-.3.2-.2.3-.4.3-.7 0-.2-.1-.4-.2-.6-.1-.2-.3-.3-.6-.4-.3-.1-.8-.1-1.7-.1h-1.5zM132 108h-2.1l-.8-1.8h-3.7l-.8 1.8h-2l3.6-8.1h2l3.8 8.1zm-3.5-3.2l-1.3-3-1.3 3h2.6zM140.3 108v-8h1.9v6.6h4.7v1.4h-6.6zM155.9 108v-8h1.9v6.6h4.7v1.4h-6.6zM188.6 105l1.8.5c-.3.9-.7 1.5-1.4 2-.7.4-1.5.6-2.5.6-1.2 0-2.3-.4-3.1-1.1-.8-.7-1.2-1.7-1.2-3s.4-2.4 1.2-3.1c.8-.7 1.9-1.1 3.2-1.1 1.1 0 2.1.3 2.8.9.4.3.7.8 1 1.5l-1.9.4c-.1-.4-.3-.7-.7-1-.4-.2-.8-.4-1.3-.4-.7 0-1.3.2-1.7.6-.4.4-.6 1.1-.6 2.1s.2 1.7.6 2.2c.4.4 1 .6 1.7.6.5 0 .9-.1 1.3-.4.4-.3.7-.7.8-1.3zM200 108v-8h1.9v6.6h4.7v1.4H200zM215 99.9h1.9v4.4c0 .7 0 1.1.1 1.3.1.3.3.6.6.8.3.2.7.3 1.2.3s.9-.1 1.2-.3c.3-.2.4-.4.5-.7.1-.3.1-.7.1-1.4v-4.5h1.9v4.2c0 1-.1 1.7-.2 2.1-.1.4-.3.7-.6 1-.3.3-.6.5-1.1.7-.5.2-1.1.2-1.8.2-.9 0-1.6-.1-2-.3-.5-.2-.8-.4-1.1-.7-.3-.3-.4-.6-.5-.9-.1-.5-.2-1.1-.2-2v-4.2zM232.3 99.9h3.7c.7 0 1.3 0 1.7.1.4.1.7.2 1 .3.3.2.5.4.7.7.2.3.3.6.3.9 0 .4-.1.7-.4 1-.2.3-.6.6-1 .7.6.1 1 .4 1.3.7.3.3.5.8.5 1.2 0 .4-.1.7-.3 1.1-.2.3-.5.6-.8.8-.3.2-.8.3-1.3.4-.3 0-1.1 0-2.3.1h-3.2v-8zm1.8 1.4v1.9H236.7c.3 0 .6-.1.8-.3.2-.2.3-.4.3-.6 0-.2-.1-.5-.2-.6-.2-.2-.4-.3-.7-.3h-2.8zm0 3.2v2.2h3c.3 0 .5-.2.7-.3.2-.2.3-.4.3-.7 0-.2-.1-.4-.2-.6-.1-.2-.3-.3-.6-.4-.3-.1-.8-.1-1.7-.1h-1.5z"/><g><path class="st2" d="M39 48.3c-1.6 7.2-3.6 36.6 46 44.5 22.2 3.5 83.3-2.5 106.8-49.5 2.6-4.9 3.9-16.7 2.3-21.1h-3.8c-.2 8.3-3.1 34.3-40.2 52.4s-73 12.7-89.1 4.1C46.1 70 38.3 59.7 41.1 49l-2.1-.7zM66 4.8l5.7 7.5c.1.2.2.4.3.5.1.1.2.3.2.4.1.1.2.3.2.4.1.1.2.3.3.5.1-.2.2-.4.3-.5.1-.1.2-.3.3-.4.1-.1.2-.3.3-.4.1-.1.2-.3.4-.5l5.6-7.5h8.9V9h-1.9v12h1.9v4.2h-9.2v-9.5-.5-.3-.3c0-.1 0-.3.1-.4L72.8 23 66 14.1c0 .3 0 .5.1.7V25.2H57V21h1.9V9.1H57V4.8h9z"/><path class="st3" d="M89.2 25.7H79v-9.9l-6.1 8-6.3-8.1v10.1H56.5v-5.2h1.9v-11h-1.9V4.4h9.8l5.9 7.6c.2.2.3.4.4.5.1.1.2.3.2.4.1.1.1.2.2.3.1-.1.1-.2.2-.3.1-.2.2-.3.3-.5.1-.1.2-.3.3-.5l5.7-7.7h9.7v5.2h-1.9v10.9h1.9v5.4zm-9.3-.9h8.2v-3.3h-1.9V8.6h1.9V5.3H80l-5.4 7.3c-.1.2-.3.4-.4.5-.1.1-.2.2-.2.4-.1.1-.2.3-.3.4-.1.1-.2.3-.4.5l-.4.6-.4-.6c-.1-.2-.3-.4-.3-.6-.1-.1-.2-.3-.2-.4-.1-.1-.2-.3-.3-.4-.1-.1-.2-.3-.3-.5l-5.5-7.2h-8.4v3.3h1.9v12.9h-1.9v3.3h8.1v-9.2-.7c0-.1 0-.4-.1-.7l-.1-1.7 7.5 9.6 6.3-8.3.9.4c0 .1 0 .3-.1.4V24.8z"/><path class="st2" d="M103 4.8h2c.6 0 1.3.1 1.8.2.6.1 1.1.3 1.6.5s.9.6 1.2 1c.4.5.7 1.1.7 1.8.1.7.1 1.4.1 2.3v10.1c0 .6-.1 1.1-.3 1.6-.2.7-.6 1.2-1.1 1.6-.5.4-1.1.6-1.7.8-.6.2-1.3.3-2 .3h-8.6c-.5 0-1 0-1.5-.1l-1.5-.3c-.5-.1-.9-.3-1.3-.5-.5-.3-.8-.6-1-.9-.2-.3-.4-.7-.5-1-.1-.3-.2-.7-.2-1.1v-11c0-.6 0-1.2.1-1.8 0-.3.2-.8.5-1.3s.7-1 1.2-1.2c.5-.3 1-.5 1.6-.6.6-.1 1.1-.2 1.7-.2h7.2zm-.3 4.3h-4.3V21h4.3V9.1z"/><path class="st3" d="M103.3 25.7h-6.6c-.5 0-1-.1-1.6-.1l-1.5-.3c-.5-.1-1-.3-1.4-.6-.5-.3-.9-.6-1.2-1-.3-.4-.5-.7-.6-1.1-.1-.4-.2-.8-.2-1.2v-11c0-.6 0-1.2.1-1.8.1-.6.3-1.3.6-1.8.3-.6.8-1.1 1.3-1.4.5-.3 1.1-.5 1.7-.7.6-.1 1.2-.2 1.8-.2h9.3c.7 0 1.3.1 1.9.2.6.1 1.2.3 1.7.6.6.3 1 .6 1.4 1.1.5.6.8 1.3.8 2.1.1.7.1 1.5.1 2.3V21c0 .6-.1 1.2-.4 1.8-.3.8-.7 1.4-1.3 1.8-.6.4-1.2.7-1.9.9-.7.2-1.4.3-2.1.3-.6-.1-1.2-.1-1.9-.1zM97.5 5.3h-1.7c-.6 0-1.1.1-1.6.2s-1 .3-1.4.6c-.4.2-.7.6-1 1.1-.3.4-.4.9-.5 1.4-.1.6-.1 1.1-.1 1.7v11c0 .3.1.6.2.9.1.3.3.6.5.9.2.3.5.5.9.7.4.2.8.4 1.2.5.4.1.9.2 1.4.3.5.1 1 .1 1.4.1h8.5c.6 0 1.3-.1 1.9-.3.6-.2 1.1-.4 1.6-.7.4-.3.7-.7 1-1.3.2-.5.3-1 .3-1.5V10.8c0-.8 0-1.6-.1-2.2-.1-.6-.3-1.1-.6-1.6-.3-.4-.6-.6-1-.8-.4-.2-.9-.4-1.5-.5-.5-.1-1.1-.2-1.7-.2h-7.7zm5.7 16.2h-5.3V8.6h5.3v12.9zm-4.3-1h3.3V9.6h-3.3v10.9z"/><path class="st2" d="M112.4 4.8h16.3c.5 0 .9.1 1.4.1.5.1.9.2 1.4.3.4.1.9.3 1.2.6.4.3.7.5.9.8.2.3.4.6.5.9.1.3.1.6.2 1v1c0 .7 0 1.3-.1 1.8 0 .6-.2 1.1-.5 1.5-.3.5-.7.9-1.2 1.2-.6.3-1.3.6-2.3.9l1.5.3c.5.1.9.4 1.4.7.5.4.8.9.9 1.4.1.5.2.9.2 1.4V21h1.9v4.2h-5.4c-.7 0-1.4 0-1.9-.1-.5 0-1-.1-1.3-.3-.3-.1-.6-.4-.7-.6-.2-.3-.2-.6-.2-1.1V17h-4.4v8.3h-9.7V21h1.8V9.1h-1.8V4.8zm9.7 4.3v4h4.4v-4h-4.4z"/><path class="st3" d="M136.5 25.7h-5.9c-.7 0-1.4 0-1.9-.1-.6-.1-1.1-.2-1.4-.3-.4-.2-.7-.5-.9-.8-.2-.3-.3-.8-.3-1.4v-5.7h-3.4v8.3H112v-5.2h1.8V9.6H112V4.4h16.8c.5 0 1 .1 1.4.1.5.1 1 .2 1.4.3.5.1.9.4 1.4.6.4.3.8.6 1 .9.2.3.4.7.5 1.1.1.4.2.7.2 1.1v1c0 .7 0 1.3-.1 1.9 0 .6-.2 1.2-.5 1.7s-.8 1-1.4 1.4c-.2.1-.5.3-.7.4.5.2.9.4 1.3.8.6.5.9 1.1 1.1 1.6.1.5.2 1 .2 1.5v1.7h1.9v5.2zm-14.9-9.2h5.3v6.7c0 .4.1.7.2.9.1.2.3.3.5.4.3.1.7.2 1.1.2.5 0 1.1.1 1.8.1h4.9v-3.3h-1.9v-2.7c0-.4-.1-.8-.2-1.3-.1-.4-.3-.7-.7-1.1-.4-.3-.8-.5-1.2-.6l-1.5-.3v-1c.9-.2 1.7-.5 2.2-.8.5-.3.8-.7 1.1-1 .2-.4.4-.8.4-1.3s.1-1.2.1-1.8v-1c0-.3-.1-.6-.1-.8-.1-.3-.2-.5-.4-.8-.2-.2-.4-.5-.8-.7-.3-.2-.7-.4-1.1-.5-.4-.1-.9-.2-1.3-.3-.4-.1-.9-.1-1.3-.1H113v3.3h1.8v12.9H113v3.3h8.7v-8.4zm5.4-2.9h-5.3v-5h5.3v5zm-4.4-1h3.4v-3h-3.4v3z"/><g><path class="st2" d="M137.9 4.8h11.4V9h-1.8v12h3.5v-3.6h7.3v7.9h-20.4V21h1.8V9.1h-1.8V4.8z"/><path class="st3" d="M158.7 25.7h-21.3v-5.2h1.8V9.6h-1.8V4.4h12.4v5.2H148v10.9h2.5v-3.6h8.3v8.8zm-20.3-.9h19.4v-6.9h-6.3v3.6H147V8.6h1.8V5.3h-10.4v3.3h1.8v12.9h-1.8v3.3z"/></g><g><path class="st2" d="M160.1 4.8h20.1v6.7h-6.5V9.1h-4.1V13h5.8v3.8h-5.8V21h4.1v-2.6h7v6.9h-20.6V21h1.9V9.1h-1.9V4.8z"/><path class="st3" d="M181.2 25.7h-21.6v-5.2h1.9V9.6h-1.9V4.4h21.1V12h-7.5V9.6h-3.1v2.9h5.8v4.7h-5.8v3.3h3.1v-2.6h7.9v7.8zm-20.6-.9h19.6v-5.9h-6v2.6h-5.1v-5.3h5.8v-2.8h-5.8V8.6h5.1V11h5.5V5.3h-19.2v3.3h1.9v12.9h-1.9v3.3z"/></g><g><path class="st2" d="M182.2 4.8h7.6s3.3 6.9 3.3 7.1c.1-.2 3.6-7.1 3.6-7.1h7.3v4.4h-2.1l-5 7.7v4h2v4.2h-11.5V21h2v-4l-5.1-7.7h-2V4.8z"/><path class="st3" d="M199.4 25.7h-12.5v-5.2h2v-3.4L184 9.8h-2.2V4.4h8.4l.1.3c1.1 2.2 2.2 4.7 2.9 6.1.5-.9 1.4-2.7 3.2-6.1l.1-.3h8.1v5.4h-2.4l-4.8 7.3v3.4h2v5.2zm-11.6-.9h10.6v-3.3h-2v-4.7l5.2-8h1.9V5.3H197c-1.3 2.5-3.3 6.4-3.4 6.7l-.4 1.8-.5-1.8c-.1-.2-1.9-4-3.2-6.7h-6.8v3.4h1.8l5.3 8v4.7h-2v3.4z"/></g><g><path class="st3" d="M12.2 31.3H33c.6 0 1.2.1 1.7.2.6.1 1.1.3 1.6.5s1 .5 1.4.9c.4.4.7.8.9 1.3.2.5.3.9.3 1.4 0 .5 0 1-.1 1.5l-.3 1.5c-.2 1.1-.5 2-.7 2.9-.2.9-.6 1.7-1.1 2.4-.5.7-1.2 1.3-2 1.9-.8.5-1.9 1-3.3 1.4.6.2 1.2.3 1.8.5.6.2 1.1.6 1.5 1.1.5.7.7 1.4.7 2.1 0 .7-.1 1.4-.2 2.2l-.7 3.4h2.4l-1.4 6.6h-6.9c-.9 0-1.7 0-2.4-.1s-1.2-.2-1.5-.5c-.4-.2-.6-.5-.7-1-.1-.4-.1-1 .1-1.8l2-9.6h-5.6L17.8 63H5.5l1.4-6.6h2.3l3.9-18.6h-2.3l1.4-6.5zm11 6.6l-1.3 6.3h5.6l1.3-6.3h-5.6z"/><path class="st2" d="M36.2 63.7h-7.3c-1 0-1.8 0-2.4-.1-.7-.1-1.3-.3-1.8-.5-.5-.3-.8-.7-1-1.3-.1-.5-.1-1.2.1-2l1.9-9h-4.4l-2.7 12.9H4.8l1.6-7.8h2.3l3.7-17.4h-2.3l1.6-7.8H33c.6 0 1.2.1 1.8.2.6.1 1.2.3 1.7.5.6.2 1.1.6 1.6 1s.8.9 1 1.5c.2.5.3 1.1.3 1.6s0 1.1-.1 1.6-.2 1-.3 1.6c-.2 1.1-.5 2-.7 2.9-.3.9-.6 1.8-1.2 2.5-.5.8-1.2 1.4-2.1 2-.5.3-1 .6-1.7.8h.1c.7.2 1.3.7 1.8 1.3.6.8.8 1.6.8 2.5 0 .7-.1 1.5-.2 2.2l-.6 2.8h2.4l-1.4 8zm-16-14.1h6.7l-2.2 10.3c-.2.8-.1 1.3-.1 1.5.1.3.2.5.5.6.3.2.7.3 1.3.4.6.1 1.4.1 2.3.1h6.4l1.2-5.5H34l.9-4.1c.1-.7.2-1.4.2-2.1 0-.6-.2-1.2-.6-1.8-.4-.5-.8-.8-1.2-.9-.6-.2-1.2-.4-1.8-.5v-1.1c1.3-.3 2.3-.8 3.1-1.3.8-.5 1.4-1.1 1.8-1.7.5-.7.8-1.4 1-2.2.2-.9.5-1.8.7-2.9l.3-1.5c.1-.5.1-.9.1-1.4 0-.4-.1-.8-.3-1.2-.2-.4-.4-.7-.7-1.1-.3-.3-.8-.6-1.2-.8-.5-.2-1-.3-1.5-.4-.5-.1-1.1-.2-1.7-.2H12.7l-1.2 5.5h2.3L9.7 57H7.4l-1.2 5.5h11.2l2.8-12.9zm7.8-4.8h-6.7l1.6-7.4h6.7L28 44.8zm-5.4-1.1H27l1.1-5.2h-4.4l-1.1 5.2z"/><path class="st3" d="M118.4 31.3l-2.2 10.3h-8.4l.8-3.7h-5.4l-3.9 18.6h5.4l1.1-5.1h8.9l-2.5 11.7H95c-.7 0-1.4-.1-2.1-.3-1.2-.3-2-.7-2.5-1.2-.5-.6-.9-1.2-1-1.8-.2-.7-.2-1.3-.1-2s.2-1.3.3-1.8l3.3-17c.2-1 .5-1.9.8-2.8.3-.9 1-1.8 1.9-2.7.6-.5 1.3-1 2-1.3.7-.3 1.4-.5 2.1-.7.7-.1 1.4-.2 2.2-.2h16.5z"/><path class="st2" d="M112.5 63.7H94.9c-.7 0-1.5-.1-2.2-.3-1.3-.3-2.2-.8-2.8-1.4-.6-.6-1-1.3-1.2-2.1-.2-.7-.2-1.5-.1-2.2.1-.7.2-1.3.3-1.9l3.6-16.9c.2-1 .5-2 .8-2.9.3-1 1.1-2 2.1-2.9.7-.6 1.4-1 2.1-1.4.7-.3 1.5-.5 2.2-.7.7-.1 1.5-.2 2.2-.3h17.2l-2.4 11.4h-9.6l.8-3.7h-4.3l-3.7 17.4h4.3l1.1-5.1h10l-2.8 13zM104 31.8h-2.2c-.7 0-1.4.1-2.1.2-.7.1-1.3.3-2 .6-.6.3-1.3.7-1.8 1.2-.9.8-1.5 1.6-1.8 2.4-.3.9-.6 1.8-.8 2.8l-3.4 17c-.1.5-.2 1.1-.3 1.8-.1.6 0 1.2.1 1.8.1.6.5 1.1.9 1.6s1.2.8 2.2 1.1c.6.1 1.3.2 2 .3h16.8l2.2-10.6h-7.7l-1.1 5.1h-6.6l4.2-19.7h6.6l-.8 3.7h7.3l1.9-9.1H104z"/><path class="st3" d="M151.4 31.3l-1.4 6.6h-3.3l-6.1 7.2h6.3l-2.4 11.4h2.7l-1.4 6.6h-12.5l2.6-12.2h-5.3L128 63.1h-12.4l1.4-6.6h2.4l3.9-18.6h-2.4l1.4-6.6h12.4l-2.9 13.8L142 31.3h9.4z"/><path class="st2" d="M146.2 63.7h-13.6l2.6-12.2H131l-2.6 12.2h-13.6l1.6-7.8h2.4l3.7-17.4h-2.4l1.6-7.8h13.6l-2.5 11.9 8.8-11.9h10.5l-1.6 7.8H147l-5.2 6h5.7l-2.4 11.4h2.7l-1.6 7.8zM134 62.5h11.3l1.2-5.5h-2.7l2.4-11.4h-6.8l7.1-8.3h3.1l1.2-5.5h-8.5l-10 13.6-1-.5 2.8-13.1h-11.3l-1.2 5.5h2.4L119.7 57h-2.4l-1.2 5.5h11.3l2.6-12.2h6.5L134 62.5z"/><g><path class="st3" d="M154.5 31.3h25.8l-2.2 10.4h-8.3l.8-3.8h-5.3l-1.3 6h7.5l-1.2 5.9h-7.5l-1.4 6.7h5.3l.9-4.1h8.9l-2.3 10.7h-26.4l1.4-6.6h2.4l3.9-18.6h-2.4l1.4-6.6z"/><path class="st2" d="M174.6 63.7h-27.5l1.6-7.8h2.4l3.7-17.4h-2.4l1.6-7.8h27l-2.4 11.5h-9.5l.8-3.8h-4.1l-1 4.9h7.5l-1.5 7h-7.5l-1.2 5.5h4.1l.9-4.1h10.1l-2.6 12zm-26.1-1.2h25.2l2-9.6H168l-.9 4.1h-6.4l1.6-7.8h7.5l1-4.7h-7.5l1.5-7.2h6.4l-.8 3.8h7.2l2-9.3H155l-1.2 5.5h2.4L152 57h-2.4l-1.1 5.5z"/></g><g><path class="st3" d="M214.5 31.3L212 43h-7l1.1-5.1h-3.7l-3.9 18.6h2.4l-1.4 6.6h-14.7l1.4-6.6h2.4l3.9-18.6h-3.7l-1.1 5.1h-7l2.5-11.8h31.3z"/><path class="st2" d="M199.9 63.7H184l1.6-7.8h2.4l3.7-17.4h-2.5l-1.1 5.1h-8.2l2.7-12.9h32.6l-2.7 12.9h-8.2l1.1-5.1h-2.5l-3.7 17.4h2.4l-1.7 7.8zm-14.5-1.2H199l1.2-5.5h-2.4l4.2-19.7h4.8l-1.1 5.1h5.9l2.2-10.6h-30.3l-2.2 10.6h5.9l1.1-5.1h4.8L189 57h-2.4l-1.2 5.5z"/></g><g><path class="st3" d="M241.4 31.3l-2 9.4h-8.9l.6-2.7h-5.6l-1.2 5.8h6.7c1 0 2 .1 3.1.2s2 .4 2.9.9c.6.4 1 .8 1.3 1.3.3.5.4 1 .5 1.5v1.6l-.3 1.5-1.1 5.1c-.1.5-.3 1.1-.4 1.7-.2.6-.4 1.2-.8 1.8-.3.6-.8 1.1-1.3 1.7-.6.5-1.3 1-2.2 1.4-1 .4-1.9.7-2.7.7-.9.1-1.8.1-2.7.1h-16.4l2.1-9.7h9.4l-.7 3.1h5.6l1.4-6.4h-7.3c-1.1 0-2.1-.1-3.2-.2s-2-.6-2.7-1.5c-.7-.8-1.1-1.6-1.1-2.5 0-.9.1-1.8.2-2.7l1.1-5.3c.2-.9.5-1.7.8-2.5.3-.8 1-1.6 2-2.3.6-.4 1.2-.8 1.7-1 .6-.2 1.2-.4 1.8-.5.6-.1 1.2-.2 1.8-.2h17.6z"/><path class="st2" d="M227.1 63.7H210l2.3-10.9h10.6l-.7 3.1h4.4l1.1-5.3h-6.6c-1.1 0-2.2-.1-3.3-.3-1.2-.2-2.2-.7-3.1-1.6-.8-.9-1.2-1.8-1.2-2.9 0-.9.1-1.8.2-2.8l1.1-5.3c.2-.9.5-1.8.8-2.6.4-.9 1.1-1.8 2.2-2.6.6-.5 1.2-.8 1.9-1.1.6-.3 1.3-.4 1.9-.6.6-.1 1.2-.2 1.8-.2h18.5l-2.2 10.5h-10l.6-2.7H226l-1 4.7h6c1 0 2.1.1 3.2.2 1.2.1 2.2.4 3.1 1 .6.4 1.1.9 1.4 1.5.3.5.5 1.1.5 1.7.1.6 0 1.1 0 1.7-.1.6-.2 1-.3 1.5l-1.1 5.1c-.1.6-.3 1.2-.5 1.8-.2.7-.5 1.3-.8 1.9-.4.6-.8 1.2-1.4 1.8-.6.6-1.4 1.1-2.4 1.5-1 .4-2 .7-2.9.8-.9 0-1.8.1-2.7.1zm-15.7-1.2h15.7c.9 0 1.8 0 2.6-.1s1.7-.3 2.6-.7c.9-.4 1.5-.8 2.1-1.3.5-.5.9-1 1.2-1.5.3-.5.6-1.1.7-1.7.2-.6.3-1.2.4-1.7l1.1-5.1c.1-.4.2-.9.3-1.4.1-.5.1-1 0-1.4 0-.4-.2-.9-.4-1.3s-.6-.7-1.1-1.1c-.7-.5-1.6-.8-2.6-.9-1.1-.1-2.1-.1-3.1-.2h-7.4l1.5-6.9h6.7l-.6 2.7h7.7l1.7-8.2h-17c-.5 0-1.1.1-1.7.2-.6.1-1.1.3-1.7.5-.5.2-1.1.5-1.6.9-.9.7-1.5 1.4-1.8 2.1-.3.8-.6 1.6-.8 2.4l-1.1 5.3c-.1.8-.2 1.7-.2 2.6 0 .7.3 1.4 1 2.1.7.8 1.5 1.2 2.4 1.3 1 .1 2.1.2 3.1.2h8l-1.6 7.5h-6.7l.7-3.1h-8.3l-1.8 8.8z"/></g></g><g><ellipse class="st2" cx="69.2" cy="47.9" rx="26.6" ry="22.6"/><path class="st3" d="M66 23.6c-15.1 0-27.4 10.5-27.4 23.4S50.8 70.5 66 70.5c15.1 0 27.4-10.5 27.4-23.4S81.1 23.6 66 23.6zm.8 45c-13.9 0-25.1-9.7-25.1-21.6s11.2-21.6 25.1-21.6c13.9 0 25.1 9.7 25.1 21.6S80.7 68.6 66.8 68.6z"/><path class="st3" d="M73.7 68.5c4.3-2.7 5.6-14.2 2.9-23.3-2.9-10.3-8.9-17.7-12.8-20.5h3.7c3.6 3.3 9.1 11.6 11.1 21.9 1.4 6.6 1.3 17.3-3.6 21.9h-1.3z"/><path class="st3" d="M50.4 28.8c7.4 4.7 17.7 9.2 24.1 7.7 6.4-1.5 4.7-7.9 4.9-8.8l1 .4c.2 4.1-.4 8.5-5.9 9.9-5.5 1.4-16.7-2.8-25.1-8.6l1-.6zM41.1 50.6C47 46.8 59.9 42 75.9 42c9.7 0 15.8 3.1 16.6 3.6v1c-4.1-1.8-9.4-3.8-21-2.9C58.3 44.8 46.3 50 41 53.8v-3.2zM54.2 66.6c6-6.1 17.3-17.2 24.4-16.7 7.2.6 7.1 12.6 7.1 12.6l-.8.6c-.5-5-2.1-11-6.6-11.2-6.2-.3-13.4 4.3-23.3 15.2"/></g></g></svg>